HIERARCHY
ROOT Hips
{
    OFFSET 0.000000 0.000000 0.000000
    CHANNELS 6 Xposition Yposition Zposition Zrotation Xrotation Yrotation
    JOINT Spine
    {
        OFFSET -0.000000 0.101274 0.000000
        CHANNELS 3 Zrotation Xrotation Yrotation
        JOINT Spine1
        {
            OFFSET 0.000000 0.255185 -0.000000
            CHANNELS 3 Zrotation Xrotation Yrotation
            JOINT Neck
            {
                OFFSET 0.000000 0.215007 -0.000000
                CHANNELS 3 Zrotation Xrotation Yrotation
                JOINT Head
                {
                    OFFSET -0.000000 0.113627 0.019823
                    CHANNELS 3 Zrotation Xrotation Yrotation
                    End Site
                    {
                        OFFSET 0.000000 0.198228 0.000000
                    }
                }
            }
            JOINT LeftShoulder
            {
                OFFSET 0.039640 0.180737 -0.004277
                CHANNELS 3 Zrotation Xrotation Yrotation
                JOINT LeftArm
                {
                    OFFSET 0.162509 0.000000 0.000000
                    CHANNELS 3 Zrotation Xrotation Yrotation
                    JOINT LeftForeArm
                    {
                        OFFSET 0.276830 -0.000000 0.000000
                        CHANNELS 3 Zrotation Xrotation Yrotation
                        JOINT LeftHand
                        {
                            OFFSET 0.259221 -0.000000 0.000000
                            CHANNELS 3 Zrotation Xrotation Yrotation
                            End Site
                            {
                                OFFSET 0.145521 0.000000 -0.031868
                            }
                        }
                    }
                }
            }
            JOINT RightShoulder
            {
                OFFSET -0.039640 0.180737 -0.004277
                CHANNELS 3 Zrotation Xrotation Yrotation
                JOINT RightArm
                {
                    OFFSET -0.162509 0.000000 -0.000000
                    CHANNELS 3 Zrotation Xrotation Yrotation
                    JOINT RightForeArm
                    {
                        OFFSET -0.276830 -0.000000 0.000000
                        CHANNELS 3 Zrotation Xrotation Yrotation
                        JOINT RightHand
                        {
                            OFFSET -0.259221 -0.000000 0.000000
                            CHANNELS 3 Zrotation Xrotation Yrotation
                            End Site
                            {
                                OFFSET -0.145521 0.000000 -0.031868
                            }
                        }
                    }
                }
            }
        }
    }
    JOINT LeftUpLeg
    {
        OFFSET 0.099114 -0.000000 0.000000
        CHANNELS 3 Zrotation Xrotation Yrotation
        JOINT LeftLeg
        {
            OFFSET -0.000000 -0.425908 0.000000
            CHANNELS 3 Zrotation Xrotation Yrotation
            JOINT LeftFoot
            {
                OFFSET -0.000000 -0.428393 -0.000000
                CHANNELS 3 Zrotation Xrotation Yrotation
                JOINT LeftToeBase
                {
                    OFFSET 0.000000 -0.064424 0.148671
                    CHANNELS 3 Zrotation Xrotation Yrotation
                    End Site
                    {
                        OFFSET 0.000000 0.000000 0.039646
                    }
                }
            }
        }
    }
    JOINT RightUpLeg
    {
        OFFSET -0.099114 0.000000 -0.000000
        CHANNELS 3 Zrotation Xrotation Yrotation
        JOINT RightLeg
        {
            OFFSET -0.000000 -0.425908 -0.000000
            CHANNELS 3 Zrotation Xrotation Yrotation
            JOINT RightFoot
            {
                OFFSET -0.000000 -0.428393 0.000000
                CHANNELS 3 Zrotation Xrotation Yrotation
                JOINT RightToeBase
                {
                    OFFSET -0.000000 -0.064424 0.148671
                    CHANNELS 3 Zrotation Xrotation Yrotation
                    End Site
                    {
                        OFFSET 0.000000 0.000000 0.039646
                    }
                }
            }
        }
    }
}
MOTION
Frames:    15
Frame Time:    0.008333
-0.103311 2.270714 -1.695996 4.690538 18.767286 177.428421 -1.124652 -6.598517 -9.694779 5.299567 11.874563 -10.527966 2.163127 -5.603903 1.601142 5.994750 -5.002861 1.922206 31.863270 -14.371841 -18.423344 32.148876 -34.458698 -27.538145 -6.150218 -40.333755 -9.452200 -53.908997 -22.153202 -57.990616 -37.084892 -36.447071 7.651287 89.963760 -18.278147 89.958664 6.483553 -5.557636 49.562710 24.969078 -1.175821 12.234947 -4.398309 19.772474 10.180779 -0.000002 11.030336 -0.000000 25.214153 51.575123 -30.566572 -0.000001 28.320595 0.000004 -73.334610 -56.981686 -44.074242 0.000003 -1.049931 -0.000003 12.586369 41.565941 -20.539669 0.000000 22.217594 -0.000001
-0.098884 2.271089 -1.693466 6.540275 19.653301 175.092606 -0.988035 -5.621528 -9.985108 5.721197 12.050229 -10.929276 3.370084 -6.308629 1.889614 5.800700 -5.710564 2.104638 32.414448 -14.216241 -17.990229 31.980766 -34.141792 -27.363865 -6.454495 -40.312450 -9.918849 -54.103535 -22.247204 -57.995865 -36.683567 -36.851837 8.323600 89.963699 -18.547729 89.958511 6.541922 -5.625494 49.476170 25.449665 -1.226038 12.270362 -7.459344 17.332825 9.128921 -0.000002 11.019286 0.000000 22.610689 51.314129 -30.659466 -0.000000 28.435297 0.000001 -75.031265 -61.288845 -51.135754 0.000002 -0.021881 0.000005 8.682301 41.199131 -15.827295 -0.000002 21.879526 0.000002
-0.093703 2.272390 -1.690850 8.526259 20.545282 172.655472 -0.817651 -4.611677 -10.065377 6.153619 12.326846 -11.136372 4.571519 -6.929237 2.178755 5.564701 -6.399449 2.252411 33.099712 -13.903382 -17.365681 31.720858 -33.806862 -27.353792 -6.764487 -40.315369 -10.388748 -54.261997 -22.413872 -57.987396 -36.302284 -37.225594 8.956565 89.963615 -18.820599 89.958359 6.714331 -5.805709 49.329556 25.687588 -1.438637 12.332458 -9.971618 14.653776 7.671010 0.000002 10.916359 0.000000 20.204271 51.651474 -30.284834 0.000002 28.692074 -0.000001 -76.649521 -65.451309 -57.851116 -0.000000 0.820648 -0.000000 4.917387 40.733566 -11.535666 -0.000002 21.592699 0.000001
-0.087811 2.274259 -1.687868 10.636761 21.447886 170.113312 -0.625066 -3.551838 -9.987606 6.590539 12.675034 -11.197718 5.705486 -7.480925 2.497766 5.281770 -7.035234 2.401884 33.863060 -13.431791 -16.623596 31.419462 -33.418385 -27.432110 -6.987804 -40.220020 -10.747767 -54.290958 -22.571564 -57.852253 -35.607117 -37.486370 9.717103 89.963615 -18.913511 89.958252 6.977060 -6.102065 49.021866 25.637985 -1.786752 12.438534 -12.114674 11.877975 6.308218 0.000002 10.317109 0.000000 18.528313 52.398140 -29.825480 0.000000 29.077454 0.000001 -78.155838 -69.449524 -64.019844 -0.000000 1.434944 0.000002 1.262487 40.513084 -7.511632 -0.000001 21.400431 0.000005
-0.079421 2.278743 -1.685923 12.899337 22.341167 167.538803 -0.447010 -2.584381 -9.816600 6.900223 12.972077 -11.135203 6.777695 -7.933249 2.772216 4.965879 -7.554935 2.483212 34.626175 -12.748965 -15.775146 31.021675 -32.948631 -27.774651 -7.260357 -40.061123 -11.196795 -54.259861 -22.725182 -57.656376 -34.653179 -37.526775 10.468990 89.963791 -18.654242 89.958336 7.292128 -6.470531 48.630901 25.346731 -2.162423 12.681276 -13.610467 9.357925 5.330578 0.000000 9.109776 -0.000001 17.665049 53.496399 -29.315033 0.000001 29.550058 -0.000001 -80.193153 -73.284859 -70.844475 -0.000000 2.167266 -0.000000 -2.410036 40.600571 -3.304411 0.000001 21.282852 0.000003
-0.070437 2.284353 -1.683340 15.357507 23.205593 164.651855 -0.276340 -1.645386 -9.535183 7.079815 13.290759 -10.935563 7.947437 -8.107571 3.066581 4.733796 -7.829651 2.575287 35.344074 -11.913667 -14.922078 30.561691 -32.374771 -28.402637 -7.548091 -39.824821 -11.689482 -54.077736 -22.943081 -57.318024 -33.340401 -37.363323 11.304319 89.964134 -18.063791 89.958572 7.582770 -6.856009 48.116520 24.863701 -2.475712 13.040112 -14.740406 6.699163 4.436514 -0.000000 7.598879 0.000001 17.658092 54.782749 -28.932484 0.000001 30.111723 -0.000001 -83.156166 -77.262268 -78.476959 0.000002 3.142544 -0.000002 -6.201570 40.776344 1.351877 0.000006 21.195669 -0.000002
-0.062100 2.290237 -1.680451 17.913412 24.007450 161.428680 -0.112747 -0.701330 -9.133012 7.164518 13.611261 -10.594678 9.261740 -8.021030 3.396168 4.627406 -7.854243 2.708418 36.001465 -11.046768 -14.161908 30.050226 -31.736938 -29.222582 -7.800693 -39.641014 -12.119330 -53.865440 -23.148212 -57.004417 -31.727848 -37.081024 12.264816 89.964600 -17.174679 89.958923 7.776978 -7.224297 47.361847 24.265324 -2.685218 13.439843 -15.515685 3.896205 3.923931 0.000000 6.022931 -0.000000 17.251564 55.560322 -27.960041 0.000005 30.614506 -0.000007 -89.638298 -81.181046 -89.482552 -0.000001 4.450844 0.000002 -10.139267 40.874031 6.468483 -0.000002 21.108921 0.000002
-0.054148 2.295973 -1.678136 20.489674 24.736471 157.939636 0.035850 0.236946 -8.603900 7.165476 13.879957 -10.104061 10.594465 -7.842722 3.696728 4.563055 -7.710469 2.820256 36.600582 -10.204144 -13.505205 29.490261 -31.044720 -30.136038 -7.934413 -39.528442 -12.351792 -53.601154 -23.345303 -56.710686 -30.015629 -36.748592 13.269075 89.965141 -16.152370 89.959351 7.796531 -7.486853 46.419689 23.604183 -2.663830 13.892414 -16.017950 0.873450 4.052518 0.000002 4.532248 -0.000003 15.759760 55.374577 -26.092434 0.000002 30.971752 0.000005 -108.351730 -84.624039 -112.547333 -0.000000 6.245794 -0.000000 -14.142039 40.713425 11.867368 0.000002 21.015057 -0.000003
-0.046724 2.302069 -1.676432 23.001736 25.394585 154.310623 0.157599 1.127562 -7.956985 7.069873 14.067655 -9.466466 11.814578 -7.746177 3.972444 4.448805 -7.494728 2.900693 37.112347 -9.421610 -12.987773 28.862156 -30.314657 -31.158152 -8.022947 -39.558510 -12.479388 -53.418682 -23.427099 -56.597309 -28.436859 -36.402882 14.168677 89.965630 -15.132453 89.959724 7.693359 -7.664796 45.364971 23.026756 -2.477556 14.399055 -16.232899 -2.287105 4.839460 -0.000000 3.310818 0.000001 13.126609 54.368988 -23.304144 0.000001 31.188358 -0.000002 -156.153580 -85.843620 -164.402710 0.000001 8.712902 0.000003 -18.026842 40.125748 17.180866 0.000002 20.891500 0.000001
-0.039981 2.308823 -1.675391 25.380396 25.999868 150.697311 0.244302 1.922259 -7.244357 6.906534 14.176978 -8.740273 12.852393 -7.738064 4.198864 4.238499 -7.210613 2.924850 37.497593 -8.735159 -12.628248 28.168562 -29.563908 -32.238892 -8.063177 -39.718472 -12.499924 -53.353378 -23.341766 -56.691074 -27.158413 -36.029789 14.797465 89.966141 -14.067719 89.960106 7.477952 -7.758077 44.197460 22.519575 -2.221023 14.763621 -16.248682 -5.516365 6.295322 -0.000003 2.281875 0.000003 9.372923 52.717113 -19.614197 -0.000004 31.213671 0.000008 168.314270 -83.641121 156.503494 0.000002 11.840002 -0.000000 -21.457808 39.029926 21.860966 0.000000 20.753698 -0.000001
-0.033705 2.316299 -1.675361 27.599415 26.591148 147.234543 0.295098 2.581536 -6.523442 6.686541 14.238403 -7.987389 13.641998 -7.844416 4.351895 3.904045 -6.883842 2.869925 37.681694 -8.163623 -12.470258 27.429459 -28.804701 -33.362812 -8.045613 -39.957603 -12.412889 -53.311089 -23.174536 -56.878944 -26.210155 -35.598724 15.074214 89.966682 -12.922958 89.960541 7.211819 -7.820293 42.922222 22.079447 -1.996062 14.944377 -16.155502 -8.812250 8.144897 0.000003 1.200387 0.000001 5.303846 50.659973 -15.850576 -0.000000 31.080984 -0.000000 156.950821 -80.457191 142.319992 0.000000 15.405574 -0.000000 -24.132133 37.537224 25.378304 0.000004 20.616583 -0.000004
-0.027623 2.324105 -1.676550 29.675783 27.185547 144.038040 0.314048 3.076332 -5.831687 6.419536 14.282048 -7.249906 14.215018 -8.032913 4.377090 3.475048 -6.502441 2.689286 37.676136 -7.764313 -12.540584 26.681978 -28.058142 -34.568985 -8.041951 -40.254551 -12.333565 -53.343403 -22.878349 -57.190685 -25.591618 -35.107132 14.978873 89.967194 -11.769876 89.960915 6.914160 -7.875351 41.509476 21.750221 -1.802568 15.011234 -16.057953 -12.042231 10.004181 0.000003 -0.068688 -0.000003 1.840128 48.761467 -12.891294 0.000001 30.962381 0.000001 152.974976 -77.400497 136.414749 -0.000000 18.888664 -0.000000 -25.765030 35.848053 27.281954 -0.000001 20.508598 -0.000003
-0.022297 2.332830 -1.677915 31.580463 27.796001 141.205612 0.312372 3.422134 -5.218637 6.092054 14.353236 -6.576303 14.593372 -8.296226 4.317015 2.989117 -6.080671 2.431280 37.416721 -7.559238 -12.891236 25.940666 -27.382599 -35.799175 -8.034069 -40.628819 -12.230443 -53.390644 -22.551676 -57.573631 -25.307148 -34.544807 14.484494 89.967712 -10.580334 89.961311 6.583832 -7.890568 40.055092 21.497622 -1.600822 14.986830 -15.811734 -15.158623 11.857000 -0.000007 -1.402761 -0.000000 -1.059868 47.410492 -10.478137 -0.000000 30.898338 -0.000000 150.985229 -74.794510 133.459091 0.000002 21.881514 -0.000003 -26.429209 34.252796 27.550886 -0.000006 20.451944 0.000003
-0.016946 2.342041 -1.678990 33.362846 28.421892 138.765762 0.300139 3.644866 -4.710672 5.715631 14.471493 -5.996102 14.735106 -8.620549 4.165934 2.456252 -5.615129 2.105077 36.924419 -7.519407 -13.498304 25.222656 -26.770454 -36.988960 -7.970047 -40.964668 -12.054934 -53.364086 -22.241274 -57.880009 -25.293709 -33.935986 13.675905 89.968239 -9.362254 89.961678 6.227273 -7.868767 38.555691 21.278624 -1.390758 14.881763 -15.562250 -18.236168 13.555531 0.000003 -2.840404 -0.000002 -3.561875 46.692577 -8.338395 0.000006 30.895262 -0.000004 149.287048 -72.718666 131.655380 0.000001 24.061899 -0.000003 -26.298807 32.920177 26.425694 -0.000003 20.462667 -0.000003
-0.011939 2.351465 -1.679733 35.067307 29.019402 136.707733 0.285836 3.785623 -4.321115 5.326892 14.635354 -5.530372 14.729671 -8.999669 3.958554 1.950944 -5.121409 1.743409 36.260960 -7.640645 -14.329572 24.591309 -26.237759 -38.141022 -7.888971 -41.200130 -11.879768 -53.249283 -22.061926 -58.021526 -25.387543 -33.286434 12.702027 89.968719 -8.177615 89.962051 5.877937 -7.833606 37.065342 21.138845 -1.167636 14.810674 -15.312387 -21.274464 15.063621 -0.000003 -4.320688 -0.000000 -5.821441 46.415775 -6.204667 -0.000002 30.906992 -0.000004 147.497589 -71.221535 130.441116 0.000001 25.279356 0.000002 -25.611830 32.047249 24.336300 0.000007 20.560215 -0.000001
